<svg width="27" height="27" viewBox="0 0 27 27" fill="none" xmlns="http://www.w3.org/2000/svg">
<path d="M6.10964 13.4642L12.8494 17.4807C13.1648 17.6687 13.5579 17.6687 13.8733 17.4807L24.8093 10.9635C25.1347 10.7696 25.1347 10.2984 24.8093 10.1044L13.8733 3.58722C13.5579 3.39926 13.1648 3.39926 12.8494 3.58722L1.91337 10.1044C1.58799 10.2984 1.58799 10.7696 1.91337 10.9635L6.10964 13.4642ZM6.10964 13.4642L6.10964 20.5567C6.10964 20.8987 6.2845 21.2171 6.57319 21.4006L12.327 25.058C12.9617 25.4615 13.7691 25.4747 14.4168 25.0923L20.6761 21.3962C20.9808 21.2163 21.1677 20.8889 21.1677 20.5351L21.1677 13.4642" stroke="#F1F5F9" stroke-width="2"/>
</svg>
